<?xml version="1.0" encoding="UTF-8" standalone="no"?>
<svg
   xmlns:dc="http://purl.org/dc/elements/1.1/"
   xmlns:cc="http://creativecommons.org/ns#"
   xmlns:rdf="http://www.w3.org/1999/02/22-rdf-syntax-ns#"
   xmlns:svg="http://www.w3.org/2000/svg"
   xmlns="http://www.w3.org/2000/svg"
   xmlns:sodipodi="http://sodipodi.sourceforge.net/DTD/sodipodi-0.dtd"
   xmlns:inkscape="http://www.inkscape.org/namespaces/inkscape"
   width="210mm"
   height="297mm"
   viewBox="0 0 210 297"
   version="1.1"
   id="svg8"
   sodipodi:docname="dessin.svg"
   inkscape:version="1.0.2-2 (e86c870879, 2021-01-15)">
  <defs
     id="defs2">
    <inkscape:path-effect
       effect="bspline"
       id="path-effect997"
       is_visible="true"
       lpeversion="1"
       weight="33.333333"
       steps="2"
       helper_size="0"
       apply_no_weight="true"
       apply_with_weight="true"
       only_selected="false" />
    <clipPath
       clipPathUnits="userSpaceOnUse"
       id="clipPath1912">
      <path
         id="path1914"
         style="fill:#ff0000;fill-opacity:1;fill-rule:nonzero;stroke:none;stroke-width:0.264583"
         d="M 0.93999431,62.412211 V 81.405883 C 1.0192351,81.290361 1.0976999,81.17614 1.1864909,81.050866 c 0.071136,-0.100365 0.1739543,-0.173535 0.2588989,-0.262515 0.1101596,-0.115395 0.2243279,-0.227922 0.326595,-0.350366 0.1010369,-0.120973 0.1883933,-0.252479 0.2826701,-0.378788 0.6953161,-0.906894 0.428461,-0.565254 1.131714,-1.457278 0.4383426,-0.555993 0.8500845,-1.136435 1.4267862,-1.56011 0.4638593,-0.399129 0.1248707,-0.06875 0.6164998,-0.730705 0.190064,-0.25591 0.3833141,-0.509723 0.5844604,-0.757576 0.071439,-0.08789 0.1549926,-0.165018 0.2320271,-0.248047 0.3432384,-0.36993 0.4143854,-0.448884 0.75706,-0.824238 0.2183458,-0.21118 0.4273344,-0.432168 0.6547403,-0.633553 0.60877,-0.539125 1.3664835,-0.986023 2.0928954,-1.345655 0.05,-0.02477 0.035314,-0.01868 0.079582,-0.04083 0.083501,-0.24415 0.3986169,-0.473932 0.5725749,-0.685747 0.234934,-0.286057 0.64513,-0.475925 0.966349,-0.656289 0.242068,-0.128394 0.477832,-0.270054 0.726571,-0.384989 0.284393,-0.131416 0.513442,-0.231424 0.728637,-0.321945 0.127175,-0.31164 0.308795,-0.634701 0.548287,-0.963248 0.09906,-0.306993 0.214641,-0.462386 0.437699,-0.534852 0.0044,-0.0048 0.008,-0.0097 0.0124,-0.01447 0.187089,-0.202679 0.345186,-0.436721 0.561207,-0.60823 0.111588,-0.0886 0.229423,-0.173138 0.344165,-0.259934 0.254495,-0.622866 0.765634,-1.27462 1.595251,-1.873787 0.976562,-0.705295 0.89365,-0.68784 2.084627,-1.330151 0.254247,-0.13712 0.51035,-0.276293 0.783415,-0.370519 1.514654,-0.522666 0.993704,-0.262462 2.246374,-0.50023 0.398108,-0.07556 0.791012,-0.176313 1.186491,-0.264583 0.336165,-0.08151 0.675182,-0.150916 1.008208,-0.24443 1.124841,-0.315841 2.237485,-0.676608 3.350182,-1.035595 z m 43.26867669,0 c 0.177461,0.0829 0.352785,0.172413 0.523483,0.277503 0.230701,0.142033 0.427361,0.331559 0.639755,0.500226 -0.01551,-0.01678 -0.02658,-0.0331 -0.02376,-0.04702 0.01175,-0.06083 0.119843,0.03156 0.179835,0.04702 0.07024,0.01812 0.283866,0.05326 0.211357,0.05116 -0.104357,-0.0031 -0.208799,-0.0058 -0.313161,-0.0088 0.01249,0.0095 0.02458,0.01963 0.03721,0.02894 0.04234,0.02653 0.07152,0.04096 0.0217,0.01706 -0.0075,-0.0054 -0.01431,-0.01161 -0.0217,-0.01706 -0.01389,-0.0087 -0.02508,-0.01789 -0.04031,-0.02894 -0.178755,-0.005 -0.357642,-0.0099 -0.5364,-0.01498 l -0.270267,0.197403 c 0.09344,0.0066 0.185248,0.02625 0.278019,0.03927 0.971463,0.228243 0.669949,0.100002 1.55081,1.246952 0.0036,-0.0083 0.0068,-0.01487 0.01035,-0.02326 0.05065,-0.118843 0.23528,0.106924 0.356565,0.151413 0.04305,0.0158 1.346407,0.462071 1.45986,0.485241 0.246901,0.05041 0.50161,0.04884 0.752409,0.07338 1.072602,0.06382 2.173973,0.123444 3.220477,0.388088 0.176064,0.04453 0.373798,0.05707 0.518832,0.166399 0.485999,0.366451 0.895334,0.824773 1.34307,1.237134 -0.0049,0.523007 -0.0044,0.937429 0,1.264004 0.08793,0.0087 0.174585,0.02032 0.249597,0.02894 0.0038,-0.05616 0.01527,-0.155978 0.0155,-0.186553 7.94e-4,-0.08622 -0.02614,-0.170865 -0.04599,-0.254764 -0.03513,-0.148395 -0.205655,-0.316455 -0.118856,-0.441833 0.06744,-0.09742 0.162089,0.173333 0.249597,0.253214 0.110125,0.100515 0.228441,0.191431 0.342614,0.287321 0.233815,0.183536 0.474462,0.380934 0.702284,0.593244 0.08059,0.02371 0.134363,0.03704 0.229444,0.06615 0.261501,0.08007 0.526259,0.167134 0.760677,0.307993 0.603306,0.362522 1.579017,1.097106 2.135785,1.641761 0.342308,0.334841 0.665322,0.688612 0.992707,1.038177 0.218064,-0.08593 0.439475,-0.133503 0.657322,-0.139525 1.327079,-0.03669 2.516876,1.381575 1.975075,3.896921 0.516451,0.529651 0.934921,1.366507 1.112076,2.529559 0.02328,0.152885 0.03818,0.306221 0.04858,0.45992 0.896687,0.04242 1.774786,0.767422 2.110465,2.171962 0.625473,0.543584 1.080037,1.536674 1.080037,2.979664 v 0.380338 c 0.158263,0.208619 0.319707,0.43974 0.443384,0.674894 0.203311,-0.0043 0.316013,-0.0016 0.434083,0.0011 V 62.412245 Z M 67.04707,84.730746 c -0.05988,0.0013 -0.08688,1.35e-4 -0.154511,0.0021 -0.09542,0.0026 -0.192461,-0.0021 -0.288872,-0.0036 v 0.273367 c 0.181679,-0.02732 0.387987,-0.05681 0.53485,-0.08113 -0.02721,-0.06321 -0.05784,-0.126757 -0.09147,-0.190686 z m 0.09147,0.190685 c 0.186933,0.434205 0.205652,0.838441 -0.213424,1.026295 -0.105616,0.04734 -0.212883,0.08729 -0.321426,0.120923 v 0.339513 0.212908 c 0,4.155088 -3.764188,4.578765 -4.537192,1.276408 -0.1305,-0.01455 -0.243033,-0.03569 -0.330213,-0.06667 -0.31505,-0.0071 -0.446738,-0.475567 -0.514696,-1.524971 -0.187884,-0.03736 -0.448448,-0.214561 -0.803569,-0.574124 -0.03304,0.02402 -0.05808,0.04434 -0.09198,0.06873 0.0929,0.314174 0.194153,0.626004 0.278534,0.942578 0.0099,0.03725 -0.03593,-0.06869 -0.05478,-0.10232 -0.04109,-0.07333 -0.08212,-0.146333 -0.125058,-0.218591 -0.288145,-0.484931 -0.302681,-0.477073 -0.579808,-1.136367 -0.01553,-0.04491 -0.03473,-0.0886 -0.05219,-0.132807 -0.199699,-0.182491 -0.387119,-0.374097 -0.519864,-0.606682 -0.05423,-0.09501 -0.09456,-0.183531 -0.12919,-0.269751 -0.301175,-0.224073 -0.556948,-0.549637 -0.809255,-0.822171 -0.180004,-0.194437 -0.205989,-0.488143 -0.309025,-0.732256 -0.04487,-0.221054 -0.09893,-0.44033 -0.134874,-0.663008 -0.01659,-0.102937 -0.02225,-0.207852 -0.02273,-0.312127 -2.65e-4,-0.06281 0.03584,-0.126108 0.02066,-0.187068 -0.01934,-0.07796 -0.03642,-0.124497 -0.05426,-0.1788 -0.269877,-0.227801 -0.503004,-0.521841 -0.719854,-0.775147 -0.06798,-0.08392 -0.867061,-1.040093 -0.940509,-1.229897 -0.0098,-0.02532 -0.01691,-0.05156 -0.02635,-0.077 -0.763122,-0.232648 -1.483606,-0.937775 -1.862418,-2.212268 -0.03126,-0.02156 -0.0615,-0.04441 -0.09302,-0.06563 -0.144854,-0.09389 -0.280946,-0.202965 -0.4346,-0.281639 -0.499679,-0.255852 -1.069578,-0.360553 -1.538406,-0.685228 -0.234868,-0.122693 -0.486868,-0.229063 -0.681612,-0.40876 -0.386987,-0.357095 -0.71378,-0.773716 -1.062469,-1.168922 -0.02545,-0.02201 -0.05174,-0.04299 -0.07751,-0.06459 -0.0011,-0.0016 -0.0019,-0.0029 -0.0031,-0.0047 -0.06481,-0.05102 -0.128243,-0.104007 -0.195336,-0.151929 -0.62856,-0.448929 -1.294842,-0.847103 -1.967839,-1.224732 -1.203502,-0.675296 -1.840005,-1.510969 -2.036053,-2.291331 -0.11666,-0.04621 -0.231833,-0.09615 -0.349332,-0.140044 -0.138555,-0.05175 -0.280845,-0.09327 -0.421164,-0.140044 -1.100844,-0.366895 -1.832091,-0.918935 -2.242756,-1.517219 H 41.720979 40.73861 c -1.718294,0 -2.79767,-0.644496 -3.24063,-1.454692 -0.144719,-0.0076 -0.289528,-0.01368 -0.434083,-0.02429 -0.06856,-0.005 -0.149593,0.01 -0.203605,-0.03256 -0.02957,-0.02328 0.05954,-0.115189 0.02222,-0.110588 -0.151974,0.01857 -0.286157,0.109556 -0.430466,0.160713 -0.67573,0.239549 -0.582155,0.20497 -1.168403,0.380857 -1.880407,0.564113 -3.201988,0.08197 -3.76618,-0.760161 -0.02669,0.0071 -0.04524,0.01476 -0.07338,0.0217 -0.30562,0.07547 -0.614559,0.136274 -0.920875,0.208772 -0.609361,0.12831 -1.219901,0.250841 -1.829861,0.376722 -0.372078,0.0903 -0.743209,0.183782 -1.113628,0.28112 0.0055,0.0039 0.01117,0.0077 0.01654,0.01188 0.216631,0.169008 -0.175747,0.526587 -0.324527,0.757577 -0.03071,0.04768 -0.06516,0.09126 -0.09819,0.136427 0.826984,0.62263 1.085503,0.883867 -0.158128,0.197919 -0.429985,0.491466 -1.002093,0.818287 -1.623158,1.03043 -0.290042,0.08389 -0.577366,0.178223 -0.870231,0.251664 -1.098052,0.275325 0.0931,-0.12232 -1.268656,0.270266 -0.203309,0.05861 -0.398893,0.141158 -0.59738,0.214458 -0.846093,0.312473 -0.859962,0.324094 -1.700671,0.658874 -0.248474,0.05865 -0.49578,0.123332 -0.743624,0.185002 -2.43e-4,0.0016 -9.3e-5,0.0042 -5.29e-4,0.0057 -0.04374,0.267139 -0.276721,0.743609 -0.576709,1.12086 0.08656,0.250346 -0.04315,0.346363 -0.420646,0.472323 -0.09019,0.09464 -0.201151,0.195781 -0.419613,0.378788 -0.09858,0.08258 -0.211936,0.146143 -0.322461,0.211873 -0.495128,0.294463 -1.011102,0.558017 -1.542541,0.780315 -0.193922,0.16429 -0.299521,0.250383 -0.501778,0.443902 -0.413693,0.395798 -0.79787,0.837136 -1.289844,1.139981 -0.177546,0.107511 -0.349881,0.224351 -0.532784,0.322461 -0.02731,0.01466 -0.06412,0.02759 -0.09405,0.04186 0.147255,0.313108 -0.114506,0.752994 -0.186035,1.114145 -0.02953,0.149095 -0.111288,0.283741 -0.182418,0.418062 -0.229184,0.432777 -0.496985,0.801897 -0.819072,1.1498 -0.186131,0.462259 -0.388792,0.898456 -0.686779,1.30328 -0.205227,0.272245 -0.285799,0.382161 -0.520899,0.673862 -0.185815,0.23055 -0.122754,0.103986 -0.349849,0.435115 -0.09795,0.142825 -0.182149,0.295029 -0.276469,0.440282 -0.0304,0.04681 -0.06187,0.09287 -0.0925,0.139528 0.02253,0.746641 0.102998,1.495661 0.02119,2.238105 0.0019,0.674807 0.0096,1.351757 0.0062,2.028302 0.06957,0.07599 0.133076,0.156678 0.182418,0.245461 0.221,0.397651 0.310352,0.851229 0.417028,1.297597 0.04011,0.08422 0.07537,0.164745 0.09095,0.220657 4.5e-4,0.0016 0.0022,0.0046 0.0026,0.0062 4.23e-4,0.0016 -7.3e-5,0.0016 5.29e-4,0.0031 0.04191,0.103203 0.0705,0.207436 0.175183,0.552936 0.158205,0.785104 0.189257,0.824667 0.241846,1.75545 0.01531,0.270978 -5.56e-4,0.543007 -5.29e-4,0.814419 2e-4,1.289146 0.0024,2.57832 0.0036,3.867465 0.0019,3.30962 -0.01563,6.619038 -0.01033,9.928588 0.03224,0.99659 0.06343,1.99488 0.05943,2.99206 -0.0085,2.09037 -0.07884,4.17879 -0.156063,6.26732 0.02205,0.0802 0.04569,0.15993 0.06718,0.2403 0.0457,0.0675 0.09124,0.13521 0.129191,0.19534 0.385937,0.61137 0.726947,1.24556 1.033529,1.89755 0.191194,0.11223 0.382039,0.22458 0.560173,0.35761 0.121339,0.0819 0.254012,0.14977 0.364318,0.24597 0.02288,0.0199 -0.0062,0.073 0.01964,0.0889 0.08228,0.0507 0.183731,0.0586 0.274401,0.092 0.477886,0.17599 0.941246,0.38633 1.390613,0.62632 0.06547,0.0387 0.155982,0.0514 0.196371,0.11575 0.02287,0.0366 -0.16816,-0.0255 -0.129191,-0.008 0.109961,0.0516 0.233778,0.0673 0.347265,0.11059 0.236957,0.0904 0.461857,0.20234 0.684196,0.31988 0.189581,-0.01 0.304116,0.0159 0.248564,0.12402 -0.0011,0.002 -0.0033,0.004 -0.0047,0.006 0.01095,0.006 0.02213,0.0114 0.03307,0.0176 5.3e-4,2.6e-4 2.16e-4,7.9e-4 0.0016,0.001 0.179598,0.0217 0.358721,0.046 0.533301,0.092 0.211486,0.0556 0.392451,0.19265 0.593762,0.27802 0.342097,0.14909 0.202019,0.0848 0.854212,0.6165 0.106519,0.0868 0.18725,0.20132 0.28577,0.29714 0.166184,0.16163 0.341811,0.31129 0.520899,0.45734 0.02437,-0.01 0.04844,-0.0207 0.07286,-0.0305 0.04536,-0.0182 0.168493,-0.0717 0.14366,-0.0295 -0.02246,0.0381 -0.05619,0.0767 -0.08837,0.11524 0.476041,0.0958 0.950728,0.197 1.425236,0.30076 0.0151,-0.009 0.02905,-0.0196 0.04548,-0.0274 0.512772,-0.48768 0.269027,-0.27979 1.019059,-0.83199 0.08843,-0.12868 0.107152,-0.21841 0.09043,-0.2713 -0.179146,-0.0795 -0.0343,-0.10887 0,0 0.114848,0.051 0.377974,0.12195 0.879533,0.19017 0.03214,-0.0471 0.06541,-0.0933 0.09508,-0.14211 -0.01921,0.0602 -0.03098,0.0929 -0.04909,0.14831 0.546265,0.0719 1.360173,0.13963 2.615345,0.17518 -0.507641,-0.28869 -0.97066,-0.67626 -1.522906,-0.8661 -0.204838,-0.0704 -0.77628,0.006 -1.056266,0.14625 -0.0894,0.0447 -0.159015,0.12944 -0.254765,0.15813 -0.222197,0.0666 1.044853,-0.57238 0.592212,-0.36536 0.08728,-0.0443 0.759794,-0.39634 0.777214,-0.38602 3.664747,2.15787 3.554257,1.08985 2.863908,3.46749 -0.179035,0.28303 -0.359521,0.54397 -0.553455,0.79737 -0.04362,0.0895 -0.106884,0.20783 -0.161748,0.31316 0.222925,-0.006 0.446649,-0.0302 0.66766,-0.002 0.236892,0.0291 0.464574,0.10948 0.695566,0.17053 -0.01,-0.002 -0.02024,-0.005 -0.02842,5.3e-4 -0.01707,0.0121 0.02919,0.0343 0.04961,0.0393 0.309163,0.0702 0.639247,0.0247 0.94516,0.10387 0.376532,0.0247 1.108851,0.0744 1.468644,0.0863 0.136229,0.004 0.27246,-0.002 0.40876,-0.003 0.645483,-0.003 1.290876,-0.005 1.936316,0.005 0.602081,0.0148 0.295355,0.009 0.952916,0.0212 0.08218,10e-4 0.164327,0.0189 0.245978,0.0103 0.142592,-0.0166 0.282056,-0.0555 0.42478,-0.0708 0.237845,-0.0255 0.477131,-0.0345 0.715719,-0.0517 0.262441,0.01 0.524627,0.01 0.787033,0.015 0.04846,10e-4 0.09701,0.015 0.145211,0.008 0.0576,-0.006 0.114559,-0.0172 0.171566,-0.0279 -0.0093,0.003 0.05758,-0.0145 0.04754,-0.008 0.07276,-0.0139 0.145404,-0.0279 0.219109,-0.0341 0.0072,-5.3e-4 0.0145,9e-5 0.0217,-5.3e-4 0.137247,-0.0236 0.286374,-0.05 0.75706,-0.14935 0.460568,-0.0972 0.918186,-0.2074 1.376143,-0.31626 0.334656,-0.0795 0.674907,-0.14053 1.00149,-0.24856 0.03139,-0.0104 0.04124,-0.0143 0.06976,-0.0238 0.09562,-0.11227 0.213352,-0.19389 0.3576,-0.23202 0.01704,0.001 0.02455,0.002 0.03979,0.003 -0.0021,-0.065 -0.0046,-0.12996 -5.29e-4,-0.19378 0.0186,-0.29096 1.253918,-0.4855 1.690335,-0.54726 0.0122,0.004 0.23576,-0.0134 0.502296,-0.0326 0.125743,-0.0739 0.312772,-0.10069 0.706416,-0.1695 0.20406,-0.12627 0.407681,-0.2532 0.6134,-0.37672 0.724146,-0.43488 1.481563,-0.81398 2.185913,-1.2821 0.293772,-0.1447 0.582602,-0.29936 0.881081,-0.43408 0.07606,-0.0343 0.158581,-0.0526 0.239779,-0.0718 0.06311,-0.0149 0.135895,0.002 0.192238,-0.0305 0.181681,-0.10358 0.332626,-0.25446 0.507979,-0.36845 0.774067,-0.50315 0.760354,-0.47409 1.480013,-0.82527 0.970984,-0.4933 0.541676,-0.25918 1.300694,-0.69195 0.904367,-0.51563 1.929699,-1.229 3.038576,-1.13223 0.08791,-0.16544 0.221329,-0.40158 0.363286,-0.65422 0.102809,-0.22448 0.212082,-0.45143 0.358116,-0.72916 0.251,-0.47734 0.526386,-0.93299 0.799952,-1.3963 -0.05171,0.0922 -0.0457,0.0873 -0.06046,0.11627 0.01852,-0.0315 0.04029,-0.0606 0.06977,-0.0837 0.04412,-0.0346 0.05438,-0.0445 0.09612,-0.0775 0.108623,-0.12423 0.254829,-0.28322 0.436666,-0.4532 0.07547,-0.16723 0.189365,-0.29486 0.355534,-0.36225 0.04916,-0.02 0.100679,-0.0337 0.15141,-0.0496 0.0037,-0.003 0.0071,-0.006 0.01085,-0.008 0.0081,-0.0202 0.0168,-0.0402 0.02479,-0.0605 0.03655,-0.10957 0.07089,-0.21784 0.133323,-0.31884 0.02313,-0.0374 0.03268,-0.05 0.05374,-0.0837 0.01738,-0.0937 0.03405,-0.18754 0.05219,-0.28112 0.367421,-0.62174 0.853032,-1.1901 1.338418,-1.72496 0.475689,-0.4518 -0.05084,0.0313 0.537435,-0.44597 0.05637,-0.0457 -0.118869,0.0835 -0.1788,0.12454 -0.003,0.002 -0.01312,0.007 -0.0098,0.005 0.67391,-0.50376 0.398933,-0.32137 0.90537,-0.63562 0.178197,-0.13852 0.350136,-0.27524 0.535884,-0.39584 0.0123,-0.0175 0.02439,-0.0346 0.03669,-0.0522 0.0066,-0.025 0.01349,-0.05 0.02066,-0.0749 0.0263,-0.13934 0.05406,-0.27837 0.08113,-0.41754 0.07506,-0.16968 0.150252,-0.33938 0.225309,-0.50901 -0.0026,0.0415 -0.005,0.0823 -0.0083,0.12815 0.0039,-0.008 0.0087,-0.0177 0.01241,-0.0259 -2.65e-4,-0.0354 -0.0019,-0.0706 -0.0021,-0.10593 -5.29e-4,7.9e-4 -0.0013,0.002 -0.0021,0.003 5.29e-4,-0.007 0.0011,-0.0146 0.0016,-0.0217 -0.0117,0.0115 -0.02463,0.0153 -0.03927,0.002 -0.0604,-0.0531 0.05198,-0.15266 0.0739,-0.22996 0.0051,-0.0181 -0.01556,0.0345 -0.02326,0.0517 -5.3e-4,0.0395 -0.0081,0.12073 -0.01138,0.17622 0.0073,-0.007 0.01405,-0.0202 0.02066,-0.0331 0.0131,-0.14763 0.01619,-0.30042 0.07751,-0.43408 0.02874,-0.0626 0.06602,-0.121 0.10232,-0.17983 -0.01304,0.11789 -0.0259,0.23582 -0.03566,0.3545 0.01577,-0.0505 0.02997,-0.099 0.03411,-0.1354 0.04191,-0.16964 0.06708,-0.27501 0.09095,-0.36121 -0.03188,0.046 -0.06019,0.0937 -0.0894,0.14107 0.0056,-0.0514 0.0093,-0.10303 0.01654,-0.15399 0.05974,-0.0818 0.158835,-0.23875 0.249079,-0.37827 0.0545,-0.0927 0.132895,-0.22281 0.236162,-0.39326 0.0024,-0.009 0.0048,-0.0172 0.0072,-0.0258 -0.0199,-0.0639 -0.03998,-0.12749 -0.05529,-0.19275 -0.0455,-0.19385 -0.01225,-0.39826 -0.01188,-0.59738 0.0013,-0.71429 0.292965,-1.36055 0.590145,-1.99006 0.112699,-0.36903 0.2922,-0.75861 0.54932,-1.16272 -0.0108,-0.0346 -0.02212,-0.0691 -0.03152,-0.10387 0.07326,-0.12643 0.152496,-0.24952 0.219626,-0.37931 0.03247,-0.0628 -0.07384,0.11995 -0.115239,0.17726 -0.0058,0.008 0.0039,-0.0195 0.0078,-0.0284 0.02971,-0.0743 0.06034,-0.14769 0.09198,-0.22117 0.05735,-0.13324 0.08767,-0.18742 0.147278,-0.30334 0.04198,-0.17387 0.08415,-0.34772 0.124542,-0.52193 -0.04581,-0.069 -0.09288,-0.13717 -0.140044,-0.20516 0.02143,0.11375 0.0412,0.22753 0.05374,0.34262 0.05044,0.46264 -0.147738,-0.48044 -0.142626,-0.47336 0.03078,0.0427 0.05888,0.0875 0.08888,0.13074 -0.04311,-0.22888 -0.09689,-0.45637 -0.140044,-0.68523 0.0996,-0.361622 0.206814,-0.721016 0.298691,-1.084686 -0.02072,0.04511 -0.04145,0.0903 -0.06563,0.132811 -0.0054,0.0094 0.09744,-0.257628 0.07131,-0.15348 -0.0019,0.0069 -0.0039,0.01373 -0.0057,0.02066 0.0883,-0.192196 0.158414,-0.397589 0.309026,-0.541568 0.09232,-0.08825 0.143608,-0.133648 0.21704,-0.202572 0.351063,-1.434278 1.269593,-2.153989 2.190046,-2.153357 0.784464,5.29e-4 1.567114,0.524619 1.997814,1.566828 V 84.857825 c -0.101352,0.02016 -0.200586,0.04004 -0.342617,0.06356 z m -6.451285,22.881809 c -0.02273,0.0727 -0.04598,0.14561 -0.06253,0.21084 0.01569,-0.0308 0.03275,-0.0638 0.05323,-0.10181 0.0031,-0.0363 0.0063,-0.0727 0.0093,-0.10903 z m -0.06253,0.21084 c -0.01249,0.0246 -0.03123,0.0581 -0.04237,0.0811 0.0098,-8e-4 0.01969,-0.002 0.02945,-0.003 7.94e-4,-0.0217 0.0053,-0.048 0.01291,-0.078 z m -0.04237,0.0811 c -0.01423,0.001 -0.02868,0.004 -0.04289,0.005 -2.65e-4,0.003 -7.94e-4,0.006 -0.0011,0.009 -0.0031,0.0285 -0.0024,0.0571 -0.0026,0.0858 0.01371,-0.0296 0.03321,-0.0722 0.04651,-0.0997 z M 12.117606,88.335694 c -0.0011,-0.0026 -0.002,-0.0067 -0.0031,-0.0093 -0.01121,-0.02715 -0.05494,-0.113094 -0.07131,-0.147278 0.02946,0.120314 0.05895,0.240649 0.09509,0.358119 -8.74e-4,-0.104542 0.0052,-0.103397 -0.02067,-0.201539 z m -0.07441,-0.15658 c -0.006,-0.02466 -0.01373,-0.04866 -0.01964,-0.07338 -0.09581,-0.201176 -0.217377,-0.412493 -0.15813,-0.291973 0.113426,0.230743 0.13711,0.280474 0.177767,0.365353 z m 14.97221,-19.085658 c 0.05526,-0.06316 0.107854,-0.129117 0.158128,-0.197919 -0.233855,-0.176078 -0.517157,-0.38422 -0.819587,-0.604097 -0.115897,0.02059 -0.229413,0.03762 -0.340031,0.05013 -0.103662,0.02912 -0.20747,0.05767 -0.311092,0.08682 0.437121,0.210896 0.873352,0.422973 1.295529,0.656291 0.0074,0.0041 0.0098,0.0048 0.01704,0.0088 z m 23.378935,5.313889 c 0.02024,0.01593 0.04087,0.03142 0.06098,0.04754 -0.04554,-0.05137 -0.08987,-0.103622 -0.136427,-0.153996 -0.02958,-0.03201 0.04605,0.06567 0.07545,0.106453 z m 0.06098,0.04754 c 0.0065,0.0073 0.01318,0.01437 0.01963,0.0217 0.05572,0.04816 0.110525,0.09736 0.168985,0.14211 0.02786,0.02132 -0.04672,-0.05222 -0.0739,-0.07441 -0.03754,-0.03064 -0.0769,-0.05908 -0.11472,-0.0894 z M 61.736284,87.83081 c 0.0836,0.0019 0.184238,-0.03228 0.296106,-0.08526 -0.06678,-0.33519 -0.104661,-0.70507 -0.105418,-1.112078 -0.477147,0.557688 -0.699741,1.016481 -0.190688,1.197342 z m -17.122468,-24.414011 -0.04496,0.03307 c 0.08821,0.05827 0.175025,0.119396 0.272336,0.159162 0.09175,0.03749 -0.165196,-0.111019 -0.240297,-0.175699 -0.0053,-0.0046 0.0053,-0.01445 0.01291,-0.01654 z M 10.75335,71.933075 c -0.04906,0.0083 -0.103575,0.02347 -0.14676,0.05064 0.02919,-0.0091 0.0773,-0.02265 0.117822,-0.0341 0.0096,-0.0055 0.01922,-0.01109 0.02894,-0.01654 z m 8.896615,0.809252 c -6.88e-4,-5.29e-4 -0.01644,0.02069 -0.03101,0.04031 6.09e-4,0.0016 0.0015,0.0037 0.0021,0.0052 0.0179,-0.02643 0.02982,-0.04483 0.02894,-0.04548 z m -0.259932,0.352433 c -0.0011,0.0011 -0.002,0.0021 -0.0031,0.0031 -0.0025,0.0034 -0.0048,0.006 -0.0072,0.0093 0.0035,-0.0042 0.0069,-0.0082 0.01034,-0.01241 z m -0.198955,0.21549 c -0.0683,0.02246 -0.138884,0.0462 -0.224275,0.07235 0.02991,0.07866 0.120191,0.02506 0.224275,-0.07235 z m -1.005623,0.405145 c -0.01132,-0.0031 -0.02304,-2.64e-4 -0.03462,0.0026 -0.01436,0.0061 -0.02909,0.01143 -0.04341,0.01757 0.02598,-0.0067 0.103896,-0.01296 0.07803,-0.02016 z m -5.78311,5.358329 c 0.02178,0.01643 0.04458,0.03196 0.06615,0.04857 -0.0022,-0.01236 -0.0025,-0.02671 -0.0047,-0.03928 -0.02103,-0.0024 -0.04158,-0.0054 -0.0615,-0.0093 z m -7.6227898,1.006139 c 0.019071,-0.03893 -0.062306,0.0652 -0.073897,0.106971 -0.0022,0.0079 -0.00637,0.02661 -0.00878,0.03566 0.028382,-0.04719 0.058605,-0.09348 0.082682,-0.142626 z m 53.4060418,1.538925 c -0.01,0.08851 -0.01828,0.182872 -0.02479,0.285771 -0.08597,1.351087 -0.06807,0.235112 0.662492,-0.05478 -5.29e-4,-0.0028 -0.0019,-0.0075 -0.0026,-0.01035 -0.202518,-0.05134 -0.402355,-0.110238 -0.591696,-0.197403 -0.01484,-0.0068 -0.02878,-0.01588 -0.04341,-0.02326 z m -51.0154901,7.11481 c -0.010298,0.04694 -0.018841,0.09421 -0.029456,0.141078 -0.07133,0.31496 -0.4340576,1.476875 -0.5136636,1.736844 -0.2751392,0.871765 -0.1786409,0.54255 -0.4914429,1.678967 -0.2139511,0.777293 -0.2494254,0.744416 -0.2821533,1.467096 -0.00482,0.106495 0.057982,0.552376 0.063562,0.596344 0.1982031,0.843418 -0.084931,1.728648 -0.2315104,2.556434 -0.042918,0.242376 -0.075405,0.48628 -0.1085204,0.730189 -0.077502,0.570833 -0.1235546,1.145754 -0.1829345,1.718757 -0.099148,0.987903 -0.1243854,1.269653 -0.1663983,1.830903 0.00469,0.0249 0.00989,0.0501 0.013951,0.0739 0.1417659,0.25417 0.2246659,0.45812 0.3317627,0.89659 0.1183536,0.17639 0.2366938,0.3526 0.3482991,0.5333 0.026387,0.0427 0.034411,0.0947 0.054777,0.14056 0.077893,0.17556 0.1569426,0.35071 0.2397786,0.524 0.4020934,0.84114 0.8533792,1.67028 1.0955404,2.57658 0.1882939,0.59972 0.3736689,1.19033 0.5214151,1.79989 0.024612,0.0487 0.048534,0.0977 0.07338,0.14625 -0.00333,-0.82502 -0.026741,-1.65047 -0.053743,-2.47479 -0.010742,-3.35924 0.00915,-6.719006 0.00723,-10.078452 -0.00122,-1.289534 -0.00297,-2.578965 -0.0031,-3.868497 -5.24e-5,-0.522922 0.02196,-0.999765 -0.1157553,-1.500685 -0.044405,-0.107958 -0.074078,-0.184758 -0.014986,-0.05736 0.00576,0.01926 0.00971,0.03816 0.014986,0.05736 0.060226,0.146426 0.1526101,0.359799 0.131775,0.290423 C 7.778019,89.933211 7.6334408,89.633406 7.5380387,89.317544 7.5109467,89.227856 7.4924571,89.130912 7.4801611,89.030225 7.3759774,88.932194 7.2711905,88.834627 7.1701025,88.733601 Z m 0.5534546,0.522449 c 0.034157,0.116051 0.074671,0.229997 0.1271241,0.339516 0.1252082,0.261419 0.3801311,0.458203 0.6376871,0.591177 0.1783588,0.09209 0.3470291,0.162965 0.5105633,0.213942 C 8.5782941,90.014811 8.1458533,89.640309 7.7235595,89.25605 Z m 2.6277465,1.064019 c -0.3724009,0.07739 -0.5930573,0.129768 -0.7544759,0.170016 0.2454746,-0.0038 0.4913669,-0.0574 0.7544759,-0.170016 z M 8.4480653,90.43272 c -0.041865,0.0063 0.4564494,0.10245 0.67076,0.111104 -0.083087,-0.02609 -0.2371241,-0.06455 -0.6113322,-0.106971 -0.034186,-0.0039 -0.053119,-0.0051 -0.059428,-0.0041 z m -7.50806899,2.408121 v 0.335897 c 0.0206444,-0.104841 0.0411173,-0.209828 0.0614949,-0.314709 -0.0190923,-0.0069 -0.0420225,-0.01423 -0.0614949,-0.02119 z M 62.54347,102.03667 c -0.134384,0.37178 -0.108683,0.21332 -0.0677,0.26406 0.0044,-0.006 0.009,-0.0123 0.01344,-0.0186 0.01807,-0.0818 0.03506,-0.1639 0.05426,-0.24546 z m 4.937684,1.3534 c -0.01471,0.0496 -0.02998,0.099 -0.03566,0.15038 -0.0046,0.0417 0.01434,-0.0138 0.03566,-0.0791 z m 0,0.45527 c -0.04266,0.35497 -0.09821,0.75587 -0.19689,1.06712 -0.0075,0.0235 -0.01386,0.0483 -0.02066,0.0724 -0.02244,0.32766 -0.08394,0.65727 -0.180351,0.93327 -0.06188,0.17716 -0.162885,0.33722 -0.258381,0.49971 0.01029,-0.008 0.02164,-0.0143 0.03566,-0.006 0.05553,0.0203 -0.0492,0.10818 -0.06201,0.16588 -0.01773,0.0799 -0.01664,0.16301 -0.02894,0.24391 -0.09793,0.64479 -0.326271,1.24975 -0.562756,1.85363 -0.505026,1.16704 -1.03877,2.32452 -1.648994,3.44114 -5.29e-4,0.0789 -0.0016,0.15789 -0.0047,0.24805 -0.171987,0.97475 -0.165801,1.15747 -0.706416,0.9834 -0.151379,0.24904 -0.333119,0.54412 -0.490411,0.79116 -0.04947,0.18398 -0.104862,0.36684 -0.141076,0.49662 -0.251581,0.90153 -0.233116,0.84354 -0.465087,1.71669 -0.08845,0.0181 -0.110776,0.0241 -0.140044,0.032 -0.0069,0.032 -0.01378,0.0641 -0.02066,0.0961 0.05092,0.09 0.114657,0.28117 -0.03565,0.73588 -0.08997,0.27229 -0.250965,0.51353 -0.402042,0.75964 0.02806,0.003 0.05625,0.004 0.08423,0.007 0.181931,0.0212 -0.395652,0.61209 -0.325561,0.44287 0.06501,-0.15697 0.15182,-0.3043 0.241329,-0.4501 -0.459817,-0.0429 -0.930087,-0.004 -1.400948,0.0491 -0.321712,0.41645 -0.92188,1.19158 -1.123447,1.3994 -0.339066,0.34957 -0.700127,0.67774 -1.067118,0.99787 -0.169375,0.14775 -0.357021,0.27296 -0.535368,0.4098 -0.08288,0.0883 -0.165484,0.1769 -0.25218,0.26148 -0.06463,0.0631 -0.137239,0.11698 -0.209807,0.17105 -0.01881,0.0205 -0.03747,0.0409 -0.05633,0.062 -0.112112,0.32972 -0.231378,0.65704 -0.372589,0.97513 -0.09141,0.20593 -0.223678,0.39164 -0.345196,0.58136 -0.375637,0.58646 -0.807924,1.1278 -1.236102,1.67587 -0.140742,0.17677 -0.286409,0.3496 -0.422195,0.5302 -0.123315,0.16401 -0.238739,0.33389 -0.354502,0.50333 -0.05865,0.0858 -0.11261,0.17479 -0.168466,0.26252 -0.01114,0.0175 -0.01529,0.0641 -0.03255,0.0527 -0.34875,0.65873 -0.4674,0.36702 -1.512054,-0.5798 -0.587923,0.30203 -1.187035,0.57985 -1.783869,0.86506 -0.174447,0.0863 -0.350239,0.1702 -0.523483,0.2589 -0.05044,0.0258 -0.09364,0.0665 -0.147278,0.0847 -0.02066,0.007 -0.04852,-0.0272 -0.0646,-0.0124 -0.141894,0.13045 -0.244827,0.29945 -0.388091,0.4284 -0.797917,0.71817 -0.668573,0.58326 -1.564762,0.98288 -0.376571,0.0714 -0.750117,0.16434 -1.130162,0.21394 -0.157292,0.02 -0.316799,-0.004 -0.475425,-0.005 -0.150018,-2.6e-4 -0.300095,0.003 -0.450101,0.004 -0.235212,0.11064 -0.497911,0.17718 -0.765328,0.22066 -0.0965,0.1427 -0.147715,0.20418 -0.04444,0.008 -0.105929,0.0162 -0.210585,0.0266 -0.315744,0.0377 -0.211129,0.13659 -0.42451,0.26854 -0.659389,0.35398 -0.02989,0.0109 -0.06137,0.015 -0.09198,0.0227 -0.147436,0.0704 -0.296725,0.13718 -0.442351,0.21084 -0.02952,0.008 -0.114972,0.0398 -0.08888,0.0238 0.08329,-0.0511 0.246317,-0.13282 0.387572,-0.20464 -0.0367,0.005 -0.0739,0.007 -0.111104,0.009 -0.172423,0.0922 -0.340741,0.19558 -0.519863,0.27286 -0.07611,0.0328 -0.159243,0.0452 -0.24133,0.0589 0.01733,-0.005 0.03449,-0.0118 0.03411,-0.0222 -7.93e-4,-0.0229 -0.04625,1.2e-4 -0.06925,5.3e-4 -0.08064,0.0329 -0.126543,0.0525 -0.19172,0.0796 h 24.065717 z m -6.40633,3.3693 c -0.114438,0.13986 -0.226692,0.28151 -0.313158,0.43925 -0.02207,0.0403 -0.02622,0.0917 -0.02532,0.14624 0.04151,-0.081 0.09698,-0.19283 0.0832,-0.13487 -0.02048,0.0861 -0.04809,0.17045 -0.07648,0.25477 0.004,0.0552 0.0056,0.10744 -0.0052,0.14882 0.09009,-0.20957 0.204788,-0.49759 0.336929,-0.85421 z m -0.532784,0.85421 c -0.0049,0.011 -0.0096,0.0221 -0.01447,0.0331 0.0039,-2.7e-4 0.0079,-0.001 0.01188,-0.002 0.0011,-0.0102 0.0016,-0.0208 0.0026,-0.031 z m -0.01447,0.0331 c -0.0016,1.2e-4 -0.0035,7.9e-4 -0.0052,0.001 -3.7e-5,0.003 5.29e-4,0.007 5.29e-4,0.01 0.0016,-0.004 0.0029,-0.007 0.0047,-0.0103 z m 0.121441,0.0863 c -0.03384,0.0927 -0.06469,0.18594 -0.09354,0.27956 0.0034,-5e-5 0.0069,-5.2e-4 0.01035,-5.2e-4 0.01998,-0.0453 0.04149,-0.0973 0.06666,-0.15348 0.0057,-0.0418 0.0118,-0.0836 0.01654,-0.12558 z m -3.886584,4.80642 c -0.003,8e-4 -0.0058,0.002 -0.0088,0.003 v 5.3e-4 c -0.186971,0.13513 -0.360754,0.2752 -0.506944,0.41186 -0.02058,0.0456 -0.03882,0.0938 -0.05374,0.14521 0.175374,-0.14237 0.378952,-0.30502 0.507463,-0.40876 0.02043,-0.0506 0.0418,-0.10078 0.06201,-0.15141 z m -51.6671289,2.90732 c 0.00161,0.0132 0.00172,0.0266 0.00362,0.0398 1.937e-4,-0.007 3.44e-4,-0.0148 5.292e-4,-0.0222 -0.0014,-0.006 -0.00273,-0.0117 -0.00414,-0.0176 z m -4.15530179,0.23357 v 13.08499 H 19.437056 c -0.02547,-0.15633 -0.04053,-0.32049 -0.04186,-0.49402 -0.200344,0.0945 -0.400206,0.19009 -0.606164,0.2713 -0.113718,0.0448 -0.234849,0.0696 -0.355017,0.092 -0.413972,0.0772 -0.817435,0.0984 -1.235067,0.12093 -0.626499,-0.24328 -1.324411,-0.35075 -1.879472,-0.72968 -0.29892,-0.20407 -0.460408,-0.58368 -0.556038,-0.93275 -0.187315,-0.68372 -0.143887,-1.25886 0.138493,-1.84124 0.0617,-0.23272 0.706598,-1.13878 0.722953,-1.16117 0.03119,-0.036 0.06165,-0.0727 0.0925,-0.10903 -0.297351,-0.0791 -0.594626,-0.15849 -0.892452,-0.23565 -2.579268,-0.72916 -2.109751,-0.49155 -4.9640383,-1.88877 -0.2169932,-0.10622 -0.5289285,-0.26768 -0.8691975,-0.45579 -0.2372749,0.0693 -0.4424868,0.12538 -0.7131349,0.20877 -0.2737689,0.0844 -0.3646109,-0.44412 -0.5152138,-0.68781 -0.067819,-0.10974 -0.1428409,-0.26022 -0.2185914,-0.42374 -0.2952454,-0.21521 -0.5527445,-0.43132 -0.7183025,-0.63149 -0.156818,-0.18961 -0.2905963,-0.3975 -0.4123777,-0.61288 -0.8325199,-0.44842 -1.6670639,-0.89391 -2.5114747,-1.3162 -0.8134985,-0.40681 -0.7929894,-0.30856 -1.7079061,-0.89297 -0.1659891,-0.10602 -0.3038313,-0.25038 -0.4557862,-0.37569 -0.227336,-0.2659 -0.4851353,-0.50879 -0.6821289,-0.79788 -0.042641,-0.0626 -0.0806846,-0.12653 -0.11678869,-0.19121 z m 51.74412769,0.9648 c -0.03369,0.0139 -0.09694,0.0201 -0.09198,0.0558 2.65e-4,0.002 7.94e-4,0.004 0.0011,0.006 0.01759,-0.0105 0.03619,-0.0186 0.05374,-0.0289 0.0141,-0.009 0.04933,-0.0373 0.03721,-0.0326 z m -29.634883,3.08767 c -0.0068,0.007 -0.01451,0.0149 -0.0217,0.0222 -0.06717,0.0767 -0.134368,0.15377 -0.201538,0.23047 0.107171,-0.10017 0.172989,-0.18073 0.223242,-0.25269 z m 21.402827,1.67122 c -0.01378,0.002 -0.02114,0.0102 -0.02532,0.0217 0.109606,0.009 0.16297,0.0188 0.469738,0.0889 0.05453,0.0124 -0.107958,-0.0313 -0.163298,-0.0393 -0.07724,-0.0113 -0.219326,-0.0808 -0.28112,-0.0713 z m -1.614371,0.3545 c -0.125529,0.0722 -0.274433,0.17751 -0.419094,0.28422 0.03743,-0.0162 0.0756,-0.0311 0.11317,-0.047 0.1354,-0.10255 0.231092,-0.17795 0.305924,-0.23719 z m -1.992643,0.62993 c 0.0011,0.0292 5.29e-4,0.0575 0.0026,0.0868 0.164489,-0.066 0.124769,-0.079 -0.0026,-0.0868 z m 0.0026,0.0868 c -0.07876,0.0316 -0.2042,0.0763 -0.399976,0.14159 -0.04298,0.0505 -0.08073,0.10796 -0.114723,0.17053 0.08621,-0.0144 0.171796,-0.0307 0.257865,-0.046 0.0944,-0.0129 0.188786,-0.0259 0.283189,-0.0388 -0.01201,-0.0765 -0.02101,-0.1521 -0.02635,-0.22738 z m -24.90029,1.56734 c -5.03e-4,0.005 -0.0046,0.0108 -10e-4,0.0155 0.93801,1.22594 1.948629,2.39453 2.923336,3.59151 0.0493,-0.0521 0.09721,-0.10498 0.133325,-0.16639 0.037,-0.063 0.07169,-0.12922 0.106453,-0.19483 -0.0078,0.0129 -0.0204,0.0261 -0.02584,0.0388 -0.0083,0.0193 0.0233,-0.0379 0.03307,-0.0527 0.06297,-0.1208 0.118176,-0.24474 0.134876,-0.37775 0.0031,-0.0246 0.0049,-0.0522 0.0078,-0.0775 -0.128953,-0.14108 -0.261343,-0.27884 -0.396358,-0.41393 -0.05785,0.0622 -0.118711,0.12194 -0.187586,0.17519 -0.336742,0.26035 -0.392084,-0.11088 -0.330729,-0.66973 -0.113351,-0.10382 -0.227455,-0.20652 -0.343132,-0.30799 -0.0016,0.0946 0.002,0.21972 0.0067,0.39481 -0.05172,-0.14078 -0.05507,-0.28677 -0.05064,-0.43305 -0.567258,-0.49524 -1.156173,-0.96882 -1.735294,-1.44952 -0.09162,-0.0242 -0.183334,-0.048 -0.274919,-0.0724 z m 3.169315,3.23185 c -0.0024,0.005 -0.0048,0.009 -0.0072,0.0139 0.07731,-0.12721 0.248289,-0.26267 0.222209,-0.37207 -0.02047,0.0336 -0.03981,0.0658 -0.07855,0.12816 0.04,-0.0731 -0.09514,0.16739 -0.136426,0.22996 z m 9.432499,-3.02824 c -0.03645,-0.007 -0.03601,5.3e-4 0.0155,0.0263 0.330721,0.16539 0.700868,0.24162 1.033529,0.40308 0.01278,0.006 0.0326,0.0217 0.04857,0.032 -0.100137,-0.0768 -0.164333,-0.12921 -0.203089,-0.1602 -0.373587,-0.14397 -0.789146,-0.28196 -0.894519,-0.30127 z m -6.050276,3.53002 v 5.3e-4 c 0.04802,0.0203 0.09683,0.0403 0.147278,0.061 -1.67e-4,-8e-4 -3.18e-4,-0.002 -5.3e-4,-0.003 -0.02335,-0.009 -0.118825,-0.0471 -0.146761,-0.0584 z m 23.135538,0.0398 c -0.0099,0.006 -0.02005,0.0122 -0.02997,0.0186 0.01894,-0.008 0.02334,-0.01 0.04444,-0.0181 0.0044,-0.002 -0.01204,0.001 -0.01447,-5.3e-4 z m -0.552421,0.17776 c -0.102605,0.009 -0.20651,0.0177 -0.301789,0.0274 0.135456,-0.009 0.221663,-0.0118 0.284221,-0.015 0.0058,-0.004 0.01175,-0.008 0.01757,-0.0124 z m -25.941052,0.0481 c 0.08421,0.0372 0.163228,0.074 0.253731,0.10852 6.35e-4,-0.0238 0.0015,-0.0478 0.0026,-0.0718 -0.08544,-0.0122 -0.170872,-0.0245 -0.256315,-0.0367 z m 0.555522,0.0796 c -0.02287,0.0136 -0.03635,0.0206 -0.06201,0.0362 0.03611,-0.008 0.07098,-0.0165 0.106453,-0.03 -0.01481,-0.002 -0.02963,-0.004 -0.04444,-0.006 z m 0.611332,0.0879 c -0.01465,0.0161 -0.02703,0.0281 -0.04186,0.0444 -0.02116,0.0233 0.171099,-0.004 0.250114,-0.015 -0.06941,-0.01 -0.13885,-0.0198 -0.208256,-0.0294 z m 24.440368,0.0134 c -0.0028,7.9e-4 -0.0021,2.6e-4 -0.0052,0.001 -0.106786,0.034 -0.207497,0.0824 -0.306957,0.13436 0.04102,-0.008 0.0776,-0.0173 0.104902,-0.0284 0.0722,-0.0294 0.140626,-0.0665 0.207222,-0.10697 z m -0.515213,0.16174 c -0.113135,0.002 -0.226684,0.001 -0.337965,0.009 -0.142957,0.0111 0.09998,0.01 0.337965,-0.009 z" />
    </clipPath>
    <clipPath
       clipPathUnits="userSpaceOnUse"
       id="clipPath2344">
      <path
         id="path2346"
         style="fill:#ff0000;fill-opacity:1;fill-rule:nonzero;stroke:none;stroke-width:0.264583"
         d="m 72.033847,62.277853 v 21.400759 c 0.154599,-0.327311 0.355743,-0.663326 0.598411,-1.004589 0.01156,-0.01648 0.03496,-0.05619 0.04341,-0.06666 0.170799,-0.31645 0.331639,-0.459931 1.013375,-1.305865 0.04194,-0.0292 0.08477,-0.05713 0.127122,-0.08578 0.714814,-0.93473 1.294471,-1.97141 1.896009,-2.980179 0.140494,-0.235606 0.256779,-0.486961 0.418579,-0.708486 0.2872,-0.393168 0.616731,-0.753774 0.92501,-1.130678 0.271521,-0.230833 0.552881,-0.450376 0.814419,-0.692465 0.01238,-0.01146 -0.01508,-0.03174 -0.01394,-0.04857 0.0011,-0.01746 0.01056,-0.03397 0.02016,-0.04858 0.105606,-0.160594 0.205843,-0.325882 0.326594,-0.475422 0.192881,-0.238871 0.396528,-0.468381 0.594796,-0.702799 0.31446,-0.135599 0.421468,-0.487649 0.652156,-0.70435 0.11054,-0.103839 0.288935,-0.264248 0.442351,-0.405144 0.519325,-1.078645 1.363642,-1.992032 2.35593,-2.65462 0.480658,-0.320953 0.998844,-0.577691 1.524452,-0.818036 0.38245,-0.464799 0.870104,-0.925433 1.485183,-1.364776 0.308674,-0.220483 0.608955,-0.453232 0.926042,-0.661459 3.018904,-1.98248 0.09194,-0.01889 2.256708,-1.336868 0.75606,-0.409895 1.411266,-0.976201 2.143538,-1.422135 0.533373,-0.324811 1.085826,-0.61659 1.628841,-0.925007 1.643877,-0.931955 3.510185,-1.31884 5.338178,-1.706356 0.249256,-0.05284 0.501226,-0.09395 0.749307,-0.151929 z m 47.037953,0 c 0.46272,0.247269 0.94321,0.460187 1.41645,0.687297 0.11552,0.05544 0.23613,0.101716 0.34675,0.166397 0.26837,0.156934 0.52612,0.331829 0.7891,0.497644 0.17299,0.145645 0.35673,0.279521 0.51883,0.437181 0.44512,0.433004 0.78822,0.947066 1.15032,1.446943 0.47577,0.656765 0.24121,0.315217 0.68161,0.990637 0.10719,0.197006 0.20465,0.398561 0.29817,0.60203 0.081,0.07289 0.15656,0.142254 0.24805,0.221174 0.93854,0.872381 0.27224,0.270764 1.46037,1.195276 0.39006,0.303501 0.7751,0.61419 1.16427,0.918808 0.84173,0.60026 1.08748,1.062273 1.30018,1.672249 0.34894,0.375491 0.64227,0.782182 0.90744,1.211296 0.84576,0.300953 1.74926,0.901759 2.63188,1.87637 0.80847,0.892733 1.59441,1.806287 2.29237,2.788462 0.27059,0.398553 0.52379,0.847101 0.67076,1.319816 0.0535,0.105394 0.1067,0.210862 0.1602,0.316259 2.6e-4,-0.0123 0.001,-0.02492 0.002,-0.03721 0.003,-0.108786 0.11024,0.153003 0.17932,0.262001 0.0189,0.0209 0.0275,0.02934 0.0475,0.05167 0.01,0.01082 -0.0256,-0.01508 -0.0341,-0.02687 -0.004,-0.0052 -0.009,-0.01841 -0.0134,-0.02479 -0.0588,-0.0652 -0.10083,-0.109858 -0.14831,-0.161232 0.003,0.0055 0.005,0.01103 0.008,0.01654 0.009,0.199572 0.0378,0.50384 0.0703,0.828373 0.0857,0.210066 0.17612,0.438841 0.27234,0.691949 0.14096,0.11906 0.27453,0.256799 0.40204,0.407725 0.0135,-0.0863 0.0312,-0.172452 0.0413,-0.258897 0.003,-0.02627 -0.007,-0.05236 -0.0114,-0.07855 0.12821,0.271576 0.26204,0.540713 0.38447,0.814937 0.0816,0.182775 0.12128,0.281689 0.14522,0.34675 0.0907,0.117427 0.0763,0.208108 0.25993,0.455785 0.0389,0.05242 -0.11207,-0.174025 -0.11111,-0.16123 -0.15258,-0.232637 -0.0857,-0.122856 -0.14882,-0.294555 -0.0119,-0.01535 -0.0303,-0.03315 -0.047,-0.05013 0.0986,0.192029 0.18647,0.400227 0.2651,0.622186 0.0935,0.05944 0.18782,0.117668 0.27905,0.179832 0.0624,0.121179 0.12519,0.242631 0.18759,0.363802 0.73098,1.418672 0.55244,1.978123 -0.0842,2.098064 v 0.391695 c 0,6.113359 -5.76376,6.517028 -6.52932,1.215429 -0.14217,-0.103637 -0.28845,-0.225001 -0.4408,-0.37052 -0.29741,-0.284064 -0.46089,-0.653907 -0.57981,-1.0542 -0.93576,-0.480552 -0.81815,-1.081934 -0.96583,-2.504239 -0.0752,-0.724196 -0.0562,-1.371574 0.0305,-1.949236 -0.47842,-0.626197 -0.99947,-1.2187 -1.52653,-1.805056 -0.43305,-0.481782 -0.772,-0.958432 -1.03249,-1.422135 -8e-4,0.0066 -0.002,0.01138 -0.003,0.0181 -0.0573,0.440526 -0.0185,0.863881 0.11111,1.290876 0.15048,0.329229 0.19281,0.472252 0.37878,0.708485 -0.29266,-0.276873 -0.59818,-0.541351 -0.85421,-0.854212 -0.12652,-0.161616 -0.25328,-0.32311 -0.37982,-0.484725 -0.31671,-0.235916 -0.24367,-0.213143 -0.88832,-0.901753 -0.14741,-0.250243 -0.30131,-0.496483 -0.44235,-0.750342 -0.0269,-0.04843 -0.0412,-0.103479 -0.0615,-0.15503 0.0121,-0.0067 0.0427,-0.0076 0.0367,-0.02016 -0.092,-0.198985 -0.33955,-0.415393 -0.46716,-0.58911 -0.28479,-0.324864 -0.47392,-0.566513 -0.62528,-0.812872 -1.10421,0.02151 -2.34709,-0.64117 -3.3228,-2.149221 -3.45032,-0.237307 -4.8131,-2.419551 -4.09122,-4.210079 -0.11804,0 -0.16507,7.4e-5 -0.339,0 -0.276,-9.8e-5 -0.55186,-1.77e-4 -0.82785,-5.29e-4 -1.11031,-0.0021 -2.22113,-0.01934 -3.33107,0.01498 -0.29761,-7.93e-4 -0.57803,-0.0085 -0.85628,-0.02894 -0.61383,0.344445 -0.96393,0.339997 -1.67431,0.535368 -0.22197,0.06104 -0.44098,0.132287 -0.66146,0.198438 -1.98335,0.595003 -3.52813,0.367104 -4.51703,-0.280604 -0.83574,0.0231 -1.10665,0.02297 -1.91203,0.0832 -0.28212,0.02109 -0.56393,0.04355 -0.84595,0.06615 -0.17563,0.01408 -0.36331,0.108829 -0.527093,0.04393 -0.07696,-0.03051 0.244543,-0.188277 0.161743,-0.188619 -0.142722,-5.29e-4 -0.256671,0.125045 -0.384988,0.187585 -0.277461,0.06858 -0.424823,0.100999 -0.630452,0.149344 0.129265,0.06528 0.205192,0.13403 0.203089,0.222726 1.756751,1.056704 1.255021,0.868101 -0.08423,0.212392 -0.124716,0.204724 -0.389046,0.495972 -0.795816,0.964282 -0.225634,0.191357 -0.440071,0.396898 -0.676963,0.574124 -0.644343,0.482045 -1.304756,0.808678 -2.050521,1.13533 -0.206222,0.09033 -0.427911,0.140671 -0.642337,0.209291 -0.880155,0.281665 -0.635119,0.465217 -0.893485,0.263549 -0.422989,0.0571 0.07701,-0.02718 -0.818554,0.398944 -0.390639,0.185875 -0.790469,0.352848 -1.192692,0.512111 -0.08726,0.03455 -0.183361,0.0416 -0.27337,0.06822 -0.596458,0.176178 -0.441015,0.134684 -1.051615,0.437698 -0.205973,0.104917 -0.414322,0.204536 -0.617533,0.314711 -0.237627,0.128831 -0.457223,0.292523 -0.704349,0.402042 -0.433893,0.192283 -0.884831,0.343839 -1.332736,0.500745 -0.05008,0.01752 -0.231346,0.01455 -0.280085,0.01498 -0.139229,0.04543 -0.268507,0.117745 -0.402561,0.176733 -0.217236,0.09652 -0.434403,0.193374 -0.65164,0.289904 -0.105828,0.04518 -0.211934,0.08913 -0.317293,0.135393 -0.126545,0.05556 -0.24384,0.137917 -0.378272,0.170016 -0.02709,0.0065 0.01921,-0.05568 0.01241,-0.08268 -0.01252,-0.04954 -0.03727,-0.178131 -0.06821,-0.137462 -0.14927,0.196186 -0.220488,0.440973 -0.330729,0.661458 -0.03737,0.07473 -0.07703,0.142016 -0.115239,0.213942 0.340926,-0.03286 0.681836,-0.06589 1.022675,-0.0987 0.261485,-0.186502 0.505587,-0.400302 0.78445,-0.559655 0.119931,-0.06853 -0.199093,0.192416 -0.302307,0.284221 -0.184907,0.164436 -0.36557,0.334542 -0.56224,0.484724 -0.385318,0.294228 -0.750234,0.475708 -1.194242,0.676445 -0.02646,0.01196 0.04343,-0.03856 0.06511,-0.05788 -0.340127,0.122844 -0.179099,0.05458 -0.398941,0.224793 -0.492268,0.691581 -1.024795,1.197914 -1.56373,1.533239 -0.491585,0.692708 -0.956233,1.233077 -1.603002,1.806091 -0.06213,0.05505 0.101944,-0.1309 0.152961,-0.196371 -0.420497,0.234725 -0.12728,0.03454 -0.607713,0.839742 -0.162664,0.272616 -0.325946,0.545934 -0.489376,0.819071 0.207166,1.062818 0.715526,1.404887 2.013315,-0.127122 0.186079,-0.219686 0.395795,-0.421092 0.558104,-0.658876 0.03542,-0.05189 0.737854,-1.557131 -0.03876,0.09973 -0.16206,0.229034 -0.318857,0.462163 -0.486275,0.687297 -0.09925,0.133462 -0.221613,0.248201 -0.334865,0.370004 -0.453935,0.488215 -0.949023,0.934101 -1.466577,1.354439 -0.435428,0.299628 -0.860576,0.614704 -1.306381,0.898652 -0.123168,0.07845 -0.260244,0.133147 -0.396359,0.186037 -0.07978,0.031 -0.177866,0.01688 -0.248562,0.06511 -0.173051,0.118052 -0.303231,0.289854 -0.465604,0.422196 -0.06713,0.05472 -0.135813,0.107487 -0.204123,0.160716 -0.05859,0.06845 -0.114649,0.138835 -0.174665,0.206187 -0.0098,0.01098 -0.01966,0.02014 -0.02946,0.03101 -0.03492,0.06207 -0.06088,0.109943 -0.09043,0.162783 1.216448,-0.572254 1.935556,-0.489032 1.173572,1.532204 -0.0422,0.111943 -0.08441,0.223954 -0.126608,0.335897 0.0021,0.07682 0.0052,0.15368 0.0078,0.230478 -0.140459,0.546473 -0.271592,1.095119 -0.421164,1.639176 -0.01942,0.07066 -0.05928,0.133818 -0.100769,0.195337 -0.108307,0.657958 -0.165383,1.339159 -0.430464,1.955953 0.01977,0.392512 0.03869,0.785212 -5.29e-4,1.177706 -0.03955,0.196945 -0.07898,0.393779 -0.118856,0.590661 0.0011,0.05684 0.0038,0.113741 0.0016,0.170532 -0.0088,0.205882 -0.04514,0.409601 -0.0677,0.614434 -0.01826,0.05856 -0.03618,0.117239 -0.05478,0.175699 -0.0057,0.18017 -0.01701,0.360029 -0.03359,0.539501 -0.01437,0.155562 -0.04546,0.309502 -0.06821,0.464055 -0.09187,0.437857 -0.173022,0.84151 -0.305409,1.256255 0.059,0.464778 0.0481,0.941221 -0.01344,1.409732 0.737722,0.488598 1.485046,1.146117 2.216404,1.999358 0.187085,0.21827 0.374116,0.43647 0.561206,0.65474 2.165368,2.52626 2.63395,4.92945 2.068091,6.64714 0.503106,1.82289 -0.232965,4.30631 -2.913517,6.65179 -0.249452,0.21827 -0.498824,0.43699 -0.748276,0.65526 -2.596886,2.27227 -5.080873,2.71985 -6.815603,2.07222 v 11.80187 h 66.54064 V 62.277823 Z m 9.44232,9.031488 c 0.0729,0.222165 0.14753,0.462087 0.24908,0.739492 0.0767,0.209404 -0.10027,-0.438129 -0.19327,-0.640789 -0.0158,-0.03445 -0.0362,-0.06632 -0.0558,-0.0987 z m 6.2854,7.062618 c -0.057,0.0047 0.088,0.354904 0.28836,0.839227 0.007,-0.187047 0.014,-0.373346 0.0196,-0.558107 -0.0288,-0.03087 -0.0702,-0.07809 -0.0946,-0.103351 0.0157,0.06934 0.0295,0.13866 0.0398,0.208772 0.0181,0.123547 -0.0272,-0.04903 -0.0796,-0.248563 -0.0907,-0.09122 -0.14902,-0.140002 -0.17363,-0.137978 z m -5.9862,0.552424 c -0.0522,-0.0065 -0.0424,0.207576 -0.0103,0.501261 0.04,-0.116062 0.082,-0.229473 0.12867,-0.336931 -0.009,-0.01714 -0.0145,-0.02815 -0.0238,-0.04548 -0.0427,-0.07941 -0.0734,-0.116223 -0.0946,-0.118853 z m -2.31407,0.270266 c 0.0735,0.06961 0.14738,0.1396 0.21808,0.211873 0.0504,0.05148 -0.11769,-0.0862 -0.16433,-0.141075 -0.0225,-0.02647 -0.0352,-0.04696 -0.0537,-0.0708 z m 2.07791,0.940512 c -0.003,-0.0019 0.0135,0.04687 0.0222,0.07648 0.001,-0.0057 0.002,-0.01183 0.003,-0.01757 -0.005,-0.01225 -0.009,-0.02498 -0.0139,-0.03721 -0.006,-0.01373 -0.009,-0.02074 -0.0109,-0.0217 z m 1.21182,0.449585 c -0.0207,0.0126 -0.0412,0.02529 -0.062,0.03979 0.0165,0.03386 0.0348,0.07017 0.0522,0.105418 0.003,-0.05997 0.006,-0.08986 0.01,-0.145209 z m -0.01,0.145209 h -5.3e-4 c 1.9e-4,2.65e-4 2.5e-4,5.29e-4 5.3e-4,0.0011 2e-5,-2.64e-4 -2e-5,-7.93e-4 0,-0.0011 z m 0,0.0011 c -0.007,0.127691 -0.0144,0.247513 -0.0186,0.392743 -0.0549,-0.133469 -0.10781,-0.267484 -0.16071,-0.401527 -0.19629,0.166942 -0.37807,0.39011 -0.5023,0.581877 0.0682,0.08787 0.14358,0.180457 0.19069,0.254765 0.16302,-0.08571 0.31835,-0.18487 0.47077,-0.288872 0.001,-0.04698 4e-5,-0.09962 0.002,-0.145212 0.0155,0.03777 0.031,0.07542 0.0465,0.113173 0.0538,-0.03748 0.10681,-0.07613 0.15968,-0.115239 -0.06,-0.126463 -0.11734,-0.248269 -0.1881,-0.391708 z m -0.72296,0.63562 c -0.13271,0.221813 -0.16487,0.379161 0.0129,0.299725 0.0361,-0.01614 0.071,-0.03445 0.10645,-0.05168 -0.0565,-0.05774 -0.0889,-0.151966 -0.11937,-0.248046 z m -0.1912,1.494999 c -0.0968,2.64e-4 -0.0475,0.782558 0.092,1.032496 0.16759,0.300281 0.34122,0.607534 0.53175,0.902788 -0.17906,-0.628269 -0.26022,-1.324068 -0.5731,-1.883606 -0.0199,-0.03569 -0.0368,-0.05172 -0.0506,-0.05168 z m 0.76791,0.213426 c -0.0247,0.408157 -0.12174,0.822338 -0.0315,1.219046 0.0545,0.239903 0.16319,0.49361 0.27854,0.724503 -0.127,-0.04882 -0.24122,-0.0983 -0.34262,-0.148828 0.26196,0.396754 0.55808,0.766493 0.91622,1.060916 -0.0369,-0.06754 -0.0779,-0.1764 -0.30127,-0.418579 0.15838,0.259252 0.23741,0.359323 0.007,0.06718 -0.0595,-0.08084 -0.2506,-0.312979 -0.1788,-0.24288 0.067,0.06539 0.12377,0.123341 0.17208,0.175699 -0.0806,-0.131937 -0.17431,-0.296823 -0.27233,-0.492993 0.16284,0.06256 0.35209,0.124908 0.56379,0.188103 -7.9e-4,-0.04868 -0.005,-0.09424 -0.005,-0.143661 v -0.595312 c 0,-0.03822 0.003,-0.07333 0.004,-0.111104 -0.2706,-0.426908 -0.5418,-0.853392 -0.80977,-1.282091 z m 0.82114,2.856672 c 0.009,0.01601 0.0229,0.02831 0.0362,0.04134 -5.3e-4,-0.0053 -0.001,-0.01069 -0.002,-0.01601 -0.0112,-0.0087 -0.0232,-0.01635 -0.0341,-0.02532 z m -51.869696,3.773413 c -0.219165,0.153585 -0.44358,0.30126 -0.66456,0.452686 v 0.206706 c 0.270066,-0.199858 0.524481,-0.418645 0.629936,-0.590664 0.01207,-0.01968 0.02294,-0.04616 0.03462,-0.06873 z m -0.443902,4.601787 c -0.01291,0.06533 -0.02666,0.13046 -0.03927,0.195852 -0.01019,0.05286 0.03615,-0.102798 0.03876,-0.15658 5.29e-4,-0.01307 -1.75e-4,-0.02619 5.29e-4,-0.03927 z m -0.112655,0.813387 c -0.05828,0.182536 -0.117962,0.364704 -0.171048,0.548802 -0.0498,0.172714 0.145402,-0.333399 0.168982,-0.511596 0.0016,-0.0123 7.94e-4,-0.02487 0.0021,-0.03721 z M 77.5994,96.769312 c 0.02088,0.08248 0.0416,0.164737 0.05581,0.248562 0.0089,-0.04231 0.01207,-0.04121 -0.0217,-0.108003 -0.01138,-0.04683 -0.01617,-0.06433 -0.03411,-0.140559 z m -5.564,11.258228 v 0.76067 c 0.04652,-0.0468 0.09462,-0.0938 0.142626,-0.14056 -0.05197,-0.20028 -0.09985,-0.40687 -0.142626,-0.62011 z" />
    </clipPath>
    <clipPath
       clipPathUnits="userSpaceOnUse"
       id="clipPath2728">
      <path
         id="path2730"
         style="fill:#ff0000;fill-opacity:1;fill-rule:nonzero;stroke:none;stroke-width:0.264583"
         d="m 110.25322,91.142756 v 66.808324 h 66.54064 v -19.6758 c -0.0762,0.0783 -0.15428,0.14953 -0.23203,0.22169 -2.89415,3.73151 -8.45799,1.65116 -7.69772,-5.49114 0.11216,-1.05372 0.12302,-2.15846 0.45062,-3.1781 0.10455,-0.32542 0.2293,-0.64409 0.36121,-0.95963 -0.001,-0.0602 -0.003,-0.1168 -0.005,-0.17828 0.0271,-0.59895 0.0261,-1.19851 0.0191,-1.79783 -0.002,-0.21159 1.4e-4,-0.42299 5.3e-4,-0.63458 0.005,-3.02885 1.00896,-5.06493 2.35748,-6.11022 0.89054,-1.81074 2.35282,-2.71616 3.81527,-2.71612 0.31218,10e-6 0.62408,0.0425 0.9307,0.12506 V 91.142756 H 137.8961 c 0.8819,0.226883 1.12466,0.447334 1.67225,1.493449 0.0152,0.0088 0.0315,0.01632 0.0465,0.02532 0.62639,0.3762 0.95379,1.057791 1.20354,1.791104 0.0929,0.05003 0.11183,0.104297 0.0553,0.162264 0.14501,0.448408 0.26739,0.909278 0.41444,1.32705 0.11698,0.332303 0.0252,0.697304 -0.0346,1.053684 5.3e-4,0.03395 7.9e-4,0.02999 0.002,0.113686 0.0441,3.126497 -1.04908,3.087957 -2.50114,2.026751 -0.16736,0.447228 -0.34877,0.864306 -0.54416,1.247986 0.095,0.0241 0.18912,0.0508 0.28164,0.0837 0.29356,0.10462 -0.0125,0.17992 -0.45889,0.24856 -2.34894,4.23122 -6.30448,4.29053 -7.91838,1.4888 -1.35448,-0.86838 -2.03453,-2.574602 -1.51928,-4.605922 -0.25249,-0.107852 -0.18222,-0.230939 0.10697,-0.363802 0.0539,-0.169453 0.11941,-0.341186 0.19016,-0.514181 -2.61409,-0.352052 -4.29915,-1.014632 -1.28415,-3.163115 0.48847,-0.348078 0.95029,-0.736478 1.46502,-1.044382 0.43246,-0.25868 1.31907,-0.529433 1.81281,-0.694012 1.14763,-0.382545 2.1945,-0.56002 3.13056,-0.577744 0.10271,-0.03635 0.20674,-0.07095 0.31574,-0.09922 z m 27.74765,0.597382 c 0.1349,0.131784 0.25983,0.280604 0.37931,0.439248 0.10652,0.02677 0.21308,0.05251 0.31678,0.08475 -0.0786,-0.09736 -0.15523,-0.192897 -0.21033,-0.269232 -0.19063,-0.09909 -0.32587,-0.170276 -0.48576,-0.254766 z m 3.22823,4.758881 c 0.005,0.09797 0.005,0.08593 0.008,0.136943 -1.1e-4,-0.0047 1.2e-4,-0.0049 0,-0.0098 -0.001,-0.04246 -0.0109,-0.169535 -0.008,-0.127125 z m -6.59649,1.595768 c 0.40529,0.162912 0.81395,0.317235 1.22421,0.466637 0.0423,-0.143258 0.0382,-0.272277 -0.008,-0.388604 -0.4048,-0.03075 -0.81035,-0.05698 -1.21646,-0.07803 z m 3.13314,0.279053 c -0.19969,0.21222 -0.42046,0.419185 -0.66611,0.619083 0.20178,0.06646 0.40365,0.132358 0.60616,0.195855 0.17685,-0.14315 0.34657,-0.279675 0.54622,-0.443383 -0.13456,-0.111755 -0.27461,-0.239705 -0.41289,-0.362252 -0.0244,-0.0035 -0.049,-0.0059 -0.0734,-0.0093 z m 0.48627,0.371555 c 0.0504,0.04189 0.099,0.07825 0.14883,0.118337 0.0697,-0.117618 0.13509,-0.238268 0.20102,-0.358635 -0.0155,-0.0028 -0.0311,-0.0045 -0.0465,-0.0072 -0.10328,0.08429 -0.1979,0.161071 -0.30334,0.247531 z m 0.14883,0.118337 c -0.0904,0.15258 -0.18644,0.300882 -0.28474,0.447519 0.05,0.0053 0.10608,-0.01201 0.16382,-0.03824 0.035,-0.01947 0.0761,-0.04087 0.10852,-0.05943 0.0751,-0.05214 0.14654,-0.119227 0.21084,-0.192755 -0.0657,-0.05095 -0.13187,-0.103513 -0.19844,-0.157096 z m 31.81822,28.956888 c 0.001,-0.005 -0.0232,0.0247 -0.0832,0.0961 -0.0288,0.0581 -0.0517,0.10852 -0.077,0.16226 0.0867,-0.14364 0.15822,-0.2508 0.1602,-0.25838 z" />
    </clipPath>
  </defs>
  <sodipodi:namedview
     id="base"
     pagecolor="#ffffff"
     bordercolor="#666666"
     borderopacity="1.0"
     inkscape:pageopacity="0.0"
     inkscape:pageshadow="2"
     inkscape:zoom="1"
     inkscape:cx="190.13276"
     inkscape:cy="294.54861"
     inkscape:document-units="mm"
     inkscape:current-layer="layer1"
     inkscape:document-rotation="0"
     showgrid="false"
     inkscape:window-width="1920"
     inkscape:window-height="1017"
     inkscape:window-x="-8"
     inkscape:window-y="-8"
     inkscape:window-maximized="1" />
  <metadata
     id="metadata5">
    <rdf:RDF>
      <cc:Work
         rdf:about="">
        <dc:format>image/svg+xml</dc:format>
        <dc:type
           rdf:resource="http://purl.org/dc/dcmitype/StillImage" />
        <dc:title></dc:title>
      </cc:Work>
    </rdf:RDF>
  </metadata>
  <g
     inkscape:label="Calque 1"
     inkscape:groupmode="layer"
     id="layer1" />
  <g
     inkscape:groupmode="layer"
     id="layer5"
     inkscape:label="Calque 5" />
  <g
     inkscape:groupmode="layer"
     id="layer2"
     inkscape:label="Calque 2" />
  <g
     inkscape:groupmode="layer"
     id="layer4"
     inkscape:label="Calque 4" />
  <g
     inkscape:groupmode="layer"
     id="layer3"
     inkscape:label="Calque 3" />
  <g
     inkscape:groupmode="layer"
     id="layer9"
     inkscape:label="Calque 8">
    <g
       inkscape:export-xdpi="96"
       inkscape:export-ydpi="96"
       inkscape:export-filename="C:\Users\azero\g2759.png"
       id="g2759"
       transform="translate(-0.26458333,-61.647916)">
      <ellipse
         style="fill:#b3b3b3;fill-opacity:0;stroke:#0077ff;stroke-width:4;stroke-miterlimit:4;stroke-dasharray:none;stroke-opacity:1"
         id="path10"
         cx="34.210491"
         cy="95.816116"
         rx="31.270535"
         ry="31.404167" />
      <ellipse
         style="fill:#b3b3b3;fill-opacity:0;stroke:#000000;stroke-width:4;stroke-miterlimit:4;stroke-dasharray:none;stroke-opacity:1"
         id="path10-7"
         cx="105.30418"
         cy="95.682495"
         rx="31.270535"
         ry="31.404167" />
      <ellipse
         style="fill:#ff7f2a;fill-opacity:0;stroke:#ffc200;stroke-width:4;stroke-miterlimit:4;stroke-dasharray:none;stroke-opacity:1"
         id="path10-9"
         cx="68.421005"
         cy="124.5476"
         rx="31.270535"
         ry="31.404167" />
      <ellipse
         style="fill:#b3b3b3;fill-opacity:0;stroke:#00c000;stroke-width:4;stroke-miterlimit:4;stroke-dasharray:none;stroke-opacity:1"
         id="path10-6"
         cx="143.52373"
         cy="124.5476"
         rx="31.270535"
         ry="31.404167" />
      <ellipse
         style="fill:#b3b3b3;fill-opacity:0;stroke:#ff0039;stroke-width:4;stroke-miterlimit:4;stroke-dasharray:none;stroke-opacity:1"
         id="path10-93"
         cx="176.13065"
         cy="95.682495"
         rx="31.270535"
         ry="31.404167" />
      <ellipse
         style="fill:#ff7f2a;fill-opacity:0;stroke:#0077ff;stroke-width:4;stroke-miterlimit:4;stroke-dasharray:none;stroke-opacity:1"
         id="path10-9-5"
         cx="34.210533"
         cy="95.81617"
         rx="31.270535"
         ry="31.404167"
         clip-path="url(#clipPath1912)" />
      <ellipse
         style="fill:#b3b3b3;fill-opacity:0;stroke:#000000;stroke-width:4;stroke-miterlimit:4;stroke-dasharray:none;stroke-opacity:1"
         id="path10-7-0"
         cx="105.30453"
         cy="95.682167"
         rx="31.270535"
         ry="31.404167"
         clip-path="url(#clipPath2344)" />
      <ellipse
         style="fill:#b3b3b3;fill-opacity:0;stroke:#00c000;stroke-width:4;stroke-miterlimit:4;stroke-dasharray:none;stroke-opacity:1"
         id="path10-6-8"
         cx="143.52353"
         cy="124.54716"
         rx="31.270535"
         ry="31.404167"
         clip-path="url(#clipPath2728)" />
    </g>
  </g>
</svg>
